<?xml version="1.0" encoding="UTF-8"?>
<svg id="Layer_25" data-name="Layer 25" xmlns="http://www.w3.org/2000/svg" viewBox="0 0 530.93 470.12">
  <defs>
    <style>
      .cls-1 {
        fill: #edebdf;
      }

      .cls-2 {
        fill: #5b321e;
      }
    </style>
  </defs>
  <path class="cls-2" d="M441.73,205.2c-3.04-17.2-6.18-34.99-7.62-52l-.02-.19-.03-.3c-.83-6.93-.64-14.29-.43-22.09.24-9.04.49-18.38-.87-27.86-1.86-14.79-8.75-25.35-20.49-31.39-9.13-4.69-19.21-5.69-28.96-6.66-11.33-1.12-19.03-2.18-21.99-6.3-.71-2.15-1.23-4.93-1.78-7.87-1.78-9.51-4.47-23.87-18.9-30.82l-.8-.41-.39-.17c-6.91-2.97-14.99-4.35-25.43-4.35-4.86,0-9.67.28-14.34.56l-.31.02-.36.04c-8.71.93-15.45,3.78-20.56,8.69-5.7,5.31-8.35,11.96-10.69,17.84-1.55,3.9-3.02,7.58-4.96,9.62l-.12.13c-2.16,2.33-5.11,3.28-10.2,3.28-2.23,0-4.85-.2-8.27-.64l-.25-.03c-6.54-.68-13.77-1.63-21.42-2.65l-.12-.02c-17.76-2.35-37.88-5.02-56.02-5.02-15.65,0-27.95,1.99-37.63,6.07-13.23,5.59-21.57,14.94-24.77,27.79-10.57,31.71-26.68,67.6-38.34,92.16l-.1.21c-5.5,12.25-10.25,24.81-14.84,36.95-3.89,10.29-7.91,20.94-12.29,31.07-.91,2.1-2.02,4.32-3.21,6.7-4.54,9.07-9.69,19.34-8.24,32.07.88,8.18,5.43,14.02,8.44,17.89,1.7,2.19,2.37,3.18,2.6,3.62l-.13.51-.11.82c-.34,2.57-.71,5.28-1.09,8.09l-.09.63c-2.61,19.19-5.86,43.08-5.92,64.21-.08,28.82,5.86,46.12,18.69,54.41,19.44,14.44,43.49,16.02,68.95,17.7h.16c3.43.24,6.98.47,10.54.74l.25.02c9.64.51,19.93,1.02,30.54,1.13h1.74c17.89,0,36.7,1.38,54.95,2.72,18.79,1.38,38.21,2.8,57.31,2.8h0c14.48,0,27.33-.81,39.29-2.49l.9-.13.88-.25c10.85-3.08,21.48-7.3,31.78-11.39l2.26-.9c5.23-2.07,10.58-4.17,15.83-6.04l.27-.1c2.76-1.07,5.85-2.03,9.12-3.06,8.42-2.63,17.97-5.6,26.37-11.9,21.89-15.85,20.09-40.24,18.5-61.75-.67-9.1-1.37-18.5-.32-27.03.85-1.21,4.52-3.06,7.25-4.43,8.65-4.35,23.14-11.63,24.27-31.64,1.94-29.69-3.36-59.65-8.48-88.62Z"/>
  <g id="he6JdZ">
    <g>
      <path class="cls-1" d="M334.76,31.59c12.39,5.9,10.22,21.64,14.6,32.65,14.31,25.4,65.2-.72,70.27,40.27,2.35,16.31-.69,33.41,1.28,49.79,3.89,46.07,19.06,93.15,16.08,138.7-1.24,22.25-26.98,18.11-31.25,33.75-4.39,30.44,11.07,63.85-13.07,81.25-9.52,7.17-21.97,9.21-32.45,13.28-16.27,5.78-32.55,13.38-48.96,18.03-48.92,6.84-101.56-3.39-151.41-3.16-9.99-.1-19.64-.56-29.9-1.11-27.81-2.12-54.27-1.92-73.08-16.14-21.53-13.24-10.86-77.76-5.98-114.7,2.89-11.07-9.68-15.82-10.76-26.01-1.34-11.65,5.99-21.79,10.44-32.07,9.64-22.29,17.05-45.56,27.06-67.85,14.42-30.36,29.33-64.7,39.1-94.14,8.85-37.92,81.67-21.23,125.85-16.66,10.97,1.41,22.05,1.6,29.81-6.79,7.45-7.8,8.07-20.42,15.14-26.94,3.44-3.33,8.18-4.65,12.88-5.15,11.76-.7,24.11-1.43,33.81,2.74l.53.27ZM308.22,45.61c-9.82,4.49-11.41,17.34-11.98,25.98-.97,8.83-2.22,17.29-3.37,29.14-2.43,25.67-2.98,55.15,13.08,45.78,13.52-7.51,17.1-22.34,16.49-36.06-1.03-16.15,2.14-32.88,3.87-48.86,1.99-14.03-4.42-20.11-17.44-16.23l-.66.25ZM270.35,95.53c-1.74-1.9-5.24-2.41-8.04-2.75-34.07-3.86-94.69-12.38-113.5-2.28-2.83,1.83-4,3.45-6.15,6.6-5.91,8.99-14.99,28.37-24.34,49.42-14.67,33.33-24.35,56.54-36.86,83.26-3.45,7.53-8.6,18.54-11.1,25.61-1.59,4.47-2.44,8.76-.03,12.65,5.2,12.3,51.1,8.99,69.51,11.36,43.08,3.59,87,5.32,130.09,9.47,11.03,1.01,22.68,1.7,32.92-3.29,20.4-9.82,20.69-34.29,28.29-52.98,9.32-27.53,21.84-56.25,33.07-78.33,4.81-9.48,11.18-20.6,15.95-30.4,2.4-5.19,6.78-14.28,4.06-18.31-3.3-4.09-8.8-4.27-15.37-5.77-22.57-3.61-18.74-.81-23.24,24.27-1.56,6.83-3.93,13.55-7.53,19.47-10.75,17.14-26.34,35.72-47.15,30.73-4.9-1.34-11.09-2.85-13.64-7.26-4.49-9.06-3.87-43.79-4.67-63.49-.12-2.67-.44-5.77-1.96-7.63l-.3-.34ZM398.45,154.02c-6.05,18.05-.26,84.76,3.37,115.25.26,7.61,3.34,17.93,11.04,15.93,4.17-.9,7.32-2.63,8.54-6.23,5.27-25.07-15.29-105.94-15.03-129.13-2.14-12.77-5.91-4.01-7.82,3.77l-.11.41ZM315.63,321.47c-.43.27-.76.58-1.02.93,0,0-.52.72-.66,1.74-.43,3.2.88,51.64.69,66.42-.14,10.61-1.2,15.27,2.25,18.12,5.47,4.51,18.75,1.51,24.74-6.48,4.55-6.08,1.87-11.02,2.39-36.58.35-17.03,1.69-22.45,5.81-26.32,4.38-4.12,11.72-6.33,15.3-3.63,3.05,2.3,2.32,7.36,1.26,17.18-3.55,33-1.94,37.31.53,39.55,3.89,3.53,11.93,3.94,16.3.3,10.54-8.8,7.1-25.66,6.57-44.42-4.99-55.57,1.84-228.63-36.4-112.39-7.47,19.47-10.1,38.45-15.29,59.95-1.09,4.5-3.47,14.37-11.96,20.78-3.9,2.94-7.89,4.25-10.51,4.88ZM289.37,319.1c-5.82-3.83-14.75-2.72-21.61-4.04-9.38-.9-8.06.88-6.36,11.79.42,2.68.82,5.48,1.1,8.2,5.11,21.46-27.57,41.05-45.69,28.03-9.62-7.56-10.03-24.47-2.49-34.47,2.9-4.63,9.54-8.45,11.51-13.2-.08-10.65-46.9-14.74-64.17-15.89-33.23-2.04-68.54-1.08-84.17-1.69-1.82-.04-3.45.33-4.5,1.97-3.56,9.07-3.23,20.63-4.78,29.57-1.66,14.49-3.37,34.8-2.71,46.8.55,12.35,2.81,20.62,7.15,26.19,8.11,16.41,62.75,9.51,106.93,13.64,18.77,1.53,36.53,3.74,55.27,5.63,38.61,3.94,52.37,3.55,56.72-13.15,4.23-22.02-.13-55.31.27-79.49-.1-3.18.19-7.08-2.13-9.57l-.35-.34ZM244.63,332.22c-12.8-9.27-29.15,4.68-18.65,17.56,11.73,13.86,25.76-5.46,19.09-17.13l-.45-.43Z"/>
      <path class="cls-1" d="M97.17,356c-4.08-11.5-3.68-40.4,11.39-43.25,9.79-2.37,24.47-4.25,32.18,3.05,6.34,12.37-.91,36.61-10.38,44.67-8.69,5.61-26.36,4.27-32.9-3.96l-.29-.51ZM125.59,326.65c-11.4-11.53-25.09,12.25-17.29,20.97,10.62,8.14,24.24-10.65,17.73-20.4l-.45-.57Z"/>
    </g>
  </g>
</svg>