<svg width="407" height="224" viewBox="0 0 407 224" fill="none" xmlns="http://www.w3.org/2000/svg">
<path d="M35.0791 150.214C40.9204 152.966 34.8084 148.543 29.946 149.209C31.4875 149.033 33.1855 149.322 35.0791 150.214Z" fill="black"/>
<path d="M7.33353 173.653C17.3391 174.156 20.0311 143.124 35.0791 150.214C41.1195 153.06 34.3777 148.233 29.4535 149.296C22.7163 150.751 19.1403 170.612 26.1561 172.81C29.3761 173.819 37.9342 162.41 40.1727 159.941C41.6877 158.27 38.1887 173.436 44.0284 173.371C48.2073 173.325 55.1669 155.873 64.6362 156.404C67.4788 156.563 60.0818 156.608 57.0056 160.248C56.0096 161.427 56.3236 168.326 57.4215 169.53C64.2113 176.98 74.6914 168.239 80.7547 165.364C88.1989 161.834 96.7188 169.652 103.535 166.054C104.66 165.46 106.135 164.513 108.609 163.123" stroke="black" stroke-width="4.06067" stroke-linecap="round" stroke-linejoin="round"/>
<path d="M260.242 65.583C275.44 64.6399 290.509 66.562 302.746 72.9775C311.718 77.6821 318.169 85.0793 321.924 94.4268C326.899 106.808 327.366 120.22 322.62 132.779L322.617 132.786C318.61 143.897 311.688 153.07 303.221 161.604L302.307 162.526L303.598 162.396C324.696 160.257 345.37 159.744 366.262 161.278C371.494 161.663 376.348 162.748 381.122 164.579C385.858 166.396 389.937 169.475 392.754 173.678C393.853 175.319 393.585 177.196 392.112 178.101C390.627 179.013 388.812 178.447 387.793 176.765C385.766 173.418 382.194 171.135 378.229 169.62C374.257 168.102 369.836 167.333 366.029 167.047C345.283 165.485 324.689 166.022 303.932 168.156C291.586 169.424 279.688 171.201 267.485 173.099L238.082 177.663C231.239 178.725 224.649 179.34 217.783 179.65L216.406 179.709C210.734 179.928 205.33 179.665 199.811 178.812L198.707 178.633C193.762 177.637 189.097 176.196 184.708 173.626L193.381 171.312C198.142 172.834 202.891 173.658 207.89 173.888C223.323 174.589 238.919 171.684 254.142 169.395L291.576 163.771L291.517 163.383L291.782 163.688C298.839 158.371 304.771 152.134 309.782 144.985C320.17 130.154 323.488 113.241 316.386 96.1924C313.794 89.9738 309.976 84.7483 304.41 80.8193V80.8184C299.751 77.5351 294.734 75.2782 289.17 73.8008H289.171C266.313 67.7284 237.473 72.7082 215.826 82.1592L214.8 82.6133C202.399 88.1662 191.543 96.3208 182.988 106.793C176.019 115.324 171.457 125.033 170.603 134.792C169.748 144.564 172.615 154.356 180.449 163.015L180.624 163.209L180.88 163.16C187.497 161.898 193.512 159.891 199.516 157.399L200.717 156.895C202.034 156.333 203.54 157.04 204.19 158.286L204.308 158.542C204.529 159.088 204.563 159.83 204.352 160.519C204.157 161.157 203.762 161.716 203.15 162.037L203.025 162.099C195.312 165.588 187.321 168.044 178.924 169.311L178.11 169.43C174.992 169.871 171.278 170.172 167.755 169.934C164.222 169.694 160.941 168.915 158.634 167.247C156.171 165.463 155.23 162.506 156.238 159.685L156.341 159.412C158.08 155.119 161.998 152.283 165.936 149.406L166.193 149.219L166.111 148.912C161.185 130.322 169.788 111.961 182.654 98.4043C192.298 88.2405 204.037 80.4947 217.118 75.3271C229.76 70.3299 245.048 66.526 260.242 65.583ZM170.484 153.297C168.957 154.41 167.091 155.62 165.455 156.993C163.81 158.374 162.326 159.975 161.547 161.937L161.399 162.31L161.748 162.511C165.147 164.474 169.443 164.32 172.792 164.146L173.588 164.104L173.161 163.432L170.348 158.998C171.198 158.373 171.741 157.559 171.923 156.639C172.132 155.586 171.856 154.461 171.143 153.411L170.873 153.013L170.484 153.297Z" fill="black" stroke="black" stroke-width="0.930433"/>
<path d="M286.726 176.446C274.113 186.053 260.226 193.549 245.476 199.363L243.993 199.941C225.096 207.173 205.395 211.297 185.05 212.794C183.946 212.875 183.083 212.662 182.475 212.246C181.953 211.888 181.584 211.354 181.417 210.637L181.358 210.319C181.138 208.743 182.209 207.24 184.049 207.071L184.048 207.07C197.325 206.155 210.335 204.076 223.21 200.621L224.456 200.282C242.104 195.44 258.756 188.143 274.117 178.303L286.726 176.446Z" fill="black" stroke="black" stroke-width="0.930433"/>
<path d="M365.388 13.647C368.406 11.1157 372.207 10.3835 375.566 12.1899C376.904 12.9108 377.451 14.5584 377.441 16.6353C377.43 18.6839 376.873 20.9789 376.208 22.7183L375.981 23.313L376.616 23.3481C377.145 23.3781 377.696 23.3847 378.231 23.394C378.771 23.4035 379.299 23.4164 379.805 23.4595C380.763 23.541 381.581 23.7263 382.198 24.1421L382.319 24.228C384.518 25.8937 384.519 28.8058 384.135 31.4653C383.967 32.6332 383.6 33.6109 383.003 34.3237C382.416 35.0259 381.579 35.5042 380.398 35.6382C375.095 36.2377 369.953 34.8318 365.921 31.2251L365.629 30.9644L365.323 31.2075L360.018 35.4165C357.409 37.4868 354.674 38.408 351.591 37.4497H351.59C350.049 36.9717 348.783 36.135 348.261 34.6118C347.291 31.7792 347.465 28.6928 348.829 26.0249L348.497 25.855L348.584 25.3784C347.395 24.9283 346.538 24.2409 346.004 23.4038C345.504 22.6196 345.27 21.6764 345.337 20.6157L345.355 20.4028C345.563 18.35 347.182 17.084 349.352 16.5142C351.52 15.9447 354.093 16.1223 355.892 16.853C357.019 17.3108 357.88 17.9842 358.429 18.8511C358.977 19.7156 359.239 20.8088 359.11 22.1499L359.071 22.5542L359.466 22.647L361.579 23.1479L362.074 23.2651L362.147 22.7603L362.809 18.1284L362.827 17.9985L362.776 17.8784L361.771 15.5444L361.593 15.1313L361.175 15.2944L358.714 16.2544C358.529 16.3263 358.203 16.2852 357.83 16.0806C357.507 15.9029 357.275 15.6708 357.178 15.5034L357.145 15.436C356.836 14.6433 357.107 13.6751 357.806 13.3462H357.807C359.317 12.6341 360.649 12.1199 361.808 12.0708C362.376 12.0467 362.892 12.1355 363.363 12.3628C363.833 12.5902 364.286 12.9683 364.71 13.561L365.002 13.9692L365.388 13.647ZM372.102 15.9507C371.396 15.9213 370.554 16.0684 369.832 16.3589C369.088 16.6584 368.309 17.1803 368.094 17.9771L368.059 18.1401L367.14 23.7095L367.07 24.1353L367.489 24.2378L368.679 24.5259L368.761 24.1851L369.113 24.4067L369.117 24.4028L369.702 23.8169L369.422 23.7485C369.968 22.5907 370.767 22.0452 371.552 21.1841C371.988 20.7054 372.387 20.1493 372.63 19.3726C372.871 18.6015 372.948 17.6473 372.801 16.3823L372.759 16.0181L372.395 15.9741L372.102 15.9507ZM380.312 27.5249L379.856 27.5151L373.123 27.3755C371.873 27.3511 370.543 26.6827 369.742 25.9067L369.623 25.7905L369.456 25.7778L366.061 25.5034L362.373 24.9009L358.003 23.9312C357.791 23.504 357.675 23.0576 357.593 22.5972C357.546 22.3332 357.511 22.0717 357.474 21.8032C357.438 21.5388 357.4 21.2661 357.347 21.0024C357.241 20.4748 357.066 19.9368 356.681 19.4751C356.34 19.0661 355.863 18.7515 355.207 18.5366L354.915 18.4507C353.002 17.9434 350.863 18.0669 348.938 18.8042L348.555 18.9604C347.872 19.2558 347.531 20.0202 347.46 20.6851C347.389 21.3512 347.562 22.1793 348.227 22.5972V22.5981C349.879 23.6338 351.537 24.1161 352.624 24.5591C353.19 24.7898 353.573 24.9963 353.802 25.2319C354 25.4357 354.102 25.6779 354.051 26.0747V26.0757C353.994 26.5324 353.585 26.941 353.003 27.1636L352.745 27.2466L350.943 27.7202L350.645 27.7983L350.6 28.103C350.483 28.9148 350.279 29.983 350.261 30.9976C350.243 32.013 350.407 33.0912 351.117 33.8979V33.8989C351.971 34.8669 353.197 35.1179 354.343 34.9819C355.485 34.8464 356.617 34.322 357.396 33.6382L357.397 33.6392L362.354 29.2993C363.022 28.7134 364.02 28.2002 365.038 27.9937C366.06 27.7863 367.019 27.9018 367.698 28.4507C371.232 31.3114 375.196 32.7389 379.928 31.895L380.312 31.8267V27.5249Z" fill="black" stroke="black" stroke-width="0.930433"/>
<path d="M340.656 42.8455C341.595 42.727 342.525 42.9979 343.157 43.7283V43.7273C343.507 44.1322 343.672 44.7156 343.732 45.4373C343.792 46.1628 343.742 46.9292 343.728 47.696L343.716 48.363L344.346 48.1433C346.297 47.4631 348.166 46.9709 349.94 47.408C351.517 47.7967 352.362 49.0342 352.532 50.4031L352.556 50.6785C352.604 51.5234 352.445 52.2719 352.072 52.8982C351.699 53.5229 351.092 54.0601 350.183 54.4509L349.497 54.7458L350.064 55.2312C350.686 55.7645 351.05 56.3965 351.162 57.0583C351.275 57.7196 351.143 58.4493 350.709 59.1892L350.708 59.1902C349.092 61.9531 346.077 64.2008 342.898 64.491C340.544 64.7055 338.554 63.6224 337.771 61.6921L337.69 61.4939L337.487 61.4255L337.473 61.4216L337.332 61.3748L337.191 61.4177C335.141 62.0373 332.813 62.2641 330.915 61.8826C329.022 61.5019 327.651 60.5459 327.266 58.8621C326.941 57.436 327.265 56.2836 328.017 55.2371C328.786 54.1666 330.004 53.2074 331.467 52.2175L332.032 51.8357L331.47 51.449L330.294 50.6375C330.222 50.5868 330.082 50.4059 329.962 50.1287C329.907 50.0015 329.866 49.8744 329.842 49.7654C329.817 49.649 329.82 49.5839 329.823 49.5652C329.823 49.5644 329.824 49.5596 329.827 49.5505C329.83 49.5406 329.835 49.5272 329.842 49.5105C329.857 49.4765 329.879 49.4341 329.91 49.3855C329.971 49.2879 330.056 49.1797 330.154 49.0769C330.252 48.9738 330.354 48.8856 330.445 48.823C330.49 48.7921 330.527 48.7704 330.557 48.7566C330.588 48.7422 330.6 48.7394 330.596 48.74L335.412 48.0154L335.609 47.9861L335.723 47.824L338.255 44.2419C338.8 43.4745 339.71 42.9647 340.656 42.8455ZM340.687 44.8347L339.204 46.1687L339.171 46.199L339.145 46.2341L336.549 49.6628L336.173 50.1599L336.756 50.3796C337.748 50.7524 338.319 51.2443 338.601 51.8445C338.887 52.4532 338.919 53.2648 338.633 54.365L338.514 54.821L338.972 54.9333C339.72 55.1168 340.233 55.4751 340.587 55.949C340.902 56.3707 341.108 56.9075 341.22 57.5427L341.262 57.821L341.578 60.3123L341.632 60.7419L342.065 60.7185C344.284 60.5973 345.791 59.6295 347.203 58.0955L347.763 57.4871L346.953 57.324L344.122 56.7566L344.029 56.7371C343.272 56.5444 342.7 55.9045 342.643 55.1755V55.1746L342.641 55.0808C342.65 54.8492 342.748 54.5303 342.94 54.2195C343.131 53.9101 343.374 53.6766 343.611 53.5623L343.711 53.5212L349.822 51.4617L350.456 51.2478L350.034 50.7273C349.506 50.0774 348.847 49.8408 348.155 49.825C347.496 49.81 346.792 49.9949 346.141 50.1736C345.464 50.3595 344.825 50.5446 344.203 50.5974C343.594 50.649 343.04 50.5698 342.534 50.2527V50.2517L342.455 50.196C342.268 50.0437 342.043 49.7432 341.849 49.3484C341.632 48.9065 341.503 48.4436 341.499 48.1228V48.1218L341.463 45.1755L341.451 44.1482L340.687 44.8347Z" fill="black" stroke="black" stroke-width="0.930433"/>
<path d="M359.637 75.604C360.54 75.7163 361.196 76.1066 361.628 76.6685C362.065 77.2363 362.301 78.0187 362.281 78.9575C361.992 91.2024 355.193 102.139 344.4 107.878C340.541 109.909 336.549 111.121 331.929 111.762L330.781 106.079C345.626 104.389 356.424 92.9585 356.555 78.0669C356.562 77.276 356.989 76.627 357.612 76.1821C358.242 75.7312 359.024 75.5279 359.637 75.604Z" fill="black" stroke="black" stroke-width="0.930433"/>
<path d="M264.556 128.626C265.759 127.352 267.525 127.34 268.633 128.31C270 129.507 269.933 131.426 268.661 132.731C260.677 140.892 250.308 144.03 238.896 142.311L237.788 142.129C236.172 141.841 235.314 140.372 235.486 138.943L235.534 138.658C235.874 137.115 237.337 136.183 239.104 136.497C248.348 138.14 257.305 135.859 263.923 129.277L264.556 128.626Z" fill="black" stroke="black" stroke-width="0.930433"/>
<path d="M229.849 107.842C230.431 107.636 231.224 107.646 231.928 107.916C232.625 108.182 233.185 108.681 233.398 109.408L237.236 122.528L237.233 122.53C237.731 124.234 236.66 125.744 235.296 126.114C233.772 126.528 232.329 125.805 231.755 124.325L231.651 124.019L227.97 111.214C227.559 109.776 228.496 108.316 229.848 107.842H229.849Z" fill="black" stroke="black" stroke-width="0.930433"/>
<path d="M257.243 99.4094C257.871 99.1818 258.675 99.1876 259.379 99.4534C260.032 99.7001 260.561 100.154 260.802 100.806L260.846 100.939L264.614 113.556L264.66 113.709C265.063 115.352 263.979 116.787 262.478 117.143C260.973 117.5 259.526 116.662 259.031 114.986H259.03L255.466 102.954C255.007 101.398 255.85 99.9151 257.243 99.4094Z" fill="black" stroke="black" stroke-width="0.930433"/>
<path d="M385.934 52.0493C386.148 51.2323 386.994 50.7094 387.976 51.0063H387.977C391.844 52.1726 393.64 56.7333 391.599 60.2075L391.598 60.2085C390.614 61.8863 388.861 62.6589 386.873 62.9019C384.305 63.216 382.058 61.9772 381.235 59.4995C380.725 57.9671 380.604 56.0832 380.873 54.3022L380.874 54.3032C380.947 53.8204 381.239 53.4991 381.617 53.3169C382.01 53.1276 382.467 53.1056 382.794 53.2153H382.795C383.322 53.391 383.569 53.672 383.705 54.0112C383.856 54.3864 383.885 54.8666 383.874 55.4604C383.865 56.0212 383.819 56.698 383.878 57.3237C383.939 57.9643 384.112 58.6265 384.581 59.186V59.187C385.149 59.8655 386.06 59.9732 386.822 59.8403C387.586 59.7068 388.372 59.3057 388.798 58.7339L388.799 58.7349C389.456 57.8567 389.5 56.8074 389.153 55.9214C388.808 55.043 388.07 54.2981 387.117 53.9937H387.118C386.128 53.6747 385.718 52.8748 385.934 52.0493Z" fill="black" stroke="black" stroke-width="0.930433"/>
<path d="M393.543 16.1731C393.922 15.673 394.778 15.4703 395.817 15.679C396.834 15.8832 397.81 16.4479 398.283 17.176C399.018 18.3035 398.959 19.6566 398.362 20.7776L398.361 20.7786C397.429 22.5393 395.722 23.5354 393.562 23.3489L393.32 23.3274C391.458 23.0778 390.144 21.8981 390.016 20.1379V20.137C389.996 19.8552 390.061 19.4779 390.2 19.1252C390.343 18.7626 390.531 18.5097 390.688 18.4055C390.841 18.3046 391.132 18.2389 391.545 18.2473C391.941 18.2554 392.379 18.3301 392.76 18.4348L393.45 18.6243L393.343 17.9163C393.311 17.7063 393.296 17.3376 393.331 16.969C393.368 16.5784 393.453 16.296 393.544 16.1741L393.543 16.1731Z" fill="black" stroke="black" stroke-width="0.930433"/>
<path d="M396.934 80.4417C397.181 80.2461 397.563 80.1913 397.987 80.303C398.41 80.4147 398.777 80.6698 398.956 80.9524C399.378 81.6151 399.271 82.4831 398.501 83.1086L394.865 86.0647C394.378 86.4598 393.924 86.7014 393.519 86.7688C393.14 86.8317 392.772 86.7497 392.398 86.4202C391.723 85.8249 391.678 84.5997 392.477 83.9661L396.934 80.4417Z" fill="black" stroke="black" stroke-width="0.930433"/>
<path d="M321.754 29.2278L321.755 29.2288C322.033 29.2737 322.376 29.4805 322.644 29.8059C322.912 30.1298 323.047 30.4982 323.015 30.8088L322.709 33.8645V33.8655C322.686 34.099 322.5 34.3932 322.168 34.6516C321.839 34.9075 321.472 35.0457 321.234 35.05C320.984 35.0545 320.558 34.9252 320.197 34.6868C319.811 34.4319 319.698 34.1929 319.71 34.0647L320.075 30.0149C320.08 29.9595 320.113 29.8745 320.22 29.7649C320.327 29.6557 320.485 29.5472 320.679 29.4543C321.082 29.2615 321.52 29.1896 321.754 29.2278Z" fill="black" stroke="black" stroke-width="0.930433"/>
</svg>
