<svg width="245" height="203" viewBox="0 0 245 203" fill="none" xmlns="http://www.w3.org/2000/svg">
<path d="M136.128 152.592C143.145 147.306 149.043 141.105 154.027 133.994C164.342 119.268 167.613 102.523 160.584 85.6473C158.02 79.4963 154.252 74.3457 148.768 70.4749C144.158 67.2259 139.193 64.9908 133.677 63.5263C110.592 57.3933 81.3103 62.598 59.6174 72.3134C47.2794 77.838 36.4825 85.9492 27.9748 96.3631C14.1227 113.32 9.92739 134.855 25.4197 151.979C32.4359 150.64 38.7762 148.459 45.1615 145.742C46.8513 145.021 48.7214 146.049 49.3658 147.644C49.893 148.951 49.5009 151.05 47.8427 151.798C39.8441 155.417 31.5437 157.931 22.8016 159.166C16.529 160.054 7.80947 160.387 2.98782 156.9C0.275084 154.935 -0.716282 151.618 0.536445 148.513C2.33442 144.075 6.3765 141.164 10.2879 138.307C5.30402 119.498 14.019 100.977 26.9428 87.3596C36.6357 77.1441 48.433 69.3618 61.5731 64.1707C86.9386 54.1444 122.912 48.9036 147.588 61.841C156.663 66.5995 163.188 74.0843 166.982 83.5294C171.998 96.0116 172.471 109.544 167.681 122.22C163.643 133.418 156.672 142.646 148.178 151.208C169.299 149.068 190 148.554 210.922 150.091C216.199 150.478 221.097 151.573 225.915 153.421C230.732 155.268 234.891 158.405 237.766 162.694C238.974 164.497 238.735 166.696 236.982 167.773C235.229 168.85 233.143 168.133 232.021 166.281C228.118 159.838 218.173 157.355 210.621 156.787C189.905 155.228 169.339 155.764 148.606 157.895C136.273 159.162 124.385 160.937 112.182 162.834L82.7793 167.399C75.4612 168.535 68.4315 169.161 61.0504 169.449C54.9715 169.684 49.1945 169.368 43.2553 168.368C37.9245 167.295 32.8865 165.705 28.1595 162.735L38.0191 160.103C42.7822 161.64 47.5317 162.469 52.5381 162.699C67.9133 163.397 83.4507 160.504 98.6998 158.211L136.133 152.587L136.128 152.592ZM17.3942 152.957L14.339 148.139C16.3082 146.95 16.7002 144.886 15.3844 142.948C12.2706 145.219 8.07984 147.671 6.60631 151.384C9.86881 153.268 14.0235 153.132 17.3942 152.957Z" fill="black"/>
<path d="M29.7098 202.534C27.3575 202.705 25.8029 201.646 25.5235 199.659C25.2666 197.82 26.5284 196.077 28.6328 195.883C42.3136 194.941 55.7061 192.76 68.9589 189.11C86.5962 184.27 103.233 176.975 118.577 167.133L133.051 165.002C119.604 175.492 104.68 183.531 88.7862 189.651C69.8421 196.901 50.0959 201.033 29.7098 202.534Z" fill="black"/>
<path d="M193.046 15.089C190.509 14.1292 189.27 12.1104 189.518 9.632C189.991 4.97258 196.899 4.15695 200.693 5.69808C203.091 6.67142 204.474 8.61359 204.199 11.4705L206.313 11.9707L206.975 7.33834L205.97 5.00412L203.51 5.96394C202.757 6.25685 201.581 5.4998 201.338 4.88245C200.968 3.93615 201.248 2.6654 202.235 2.20126C205.254 0.777293 207.867 -0.0157998 209.715 2.56626C212.847 -0.0608619 216.853 -0.858461 220.413 1.05668C223.567 2.75552 222.625 8.60909 221.269 12.16C223.337 12.2771 225.752 12.0158 227.226 13.1333C229.659 14.9764 229.605 18.1578 229.222 20.8074C228.871 23.2498 227.659 25.0838 225.077 25.3767C219.656 25.9895 214.379 24.5521 210.238 20.848L204.934 25.0568C202.248 27.1882 199.355 28.1886 196.079 27.1702C194.466 26.67 193.037 25.7597 192.447 24.0384C191.438 21.0913 191.618 17.8739 193.042 15.089H193.046ZM213.41 13.3541C214.568 10.1052 217.533 10.5963 216.965 5.7116C215.632 5.54937 213.351 6.2253 213.144 7.49155L212.225 13.0612L213.414 13.3496L213.41 13.3541ZM224.473 20.7128V17.2565L217.74 17.1168C216.353 17.0898 214.915 16.3598 214.045 15.5171L210.634 15.2422L206.912 14.6339L202.32 13.6155C201.081 11.4345 202.383 8.95607 199.423 8.17649C197.485 7.66278 195.295 7.82951 193.366 8.66316C192.438 9.06422 192.204 10.9163 193.1 11.4795C196.313 13.4938 199.409 13.2865 199.139 15.409C199.04 16.2066 198.287 16.7608 197.49 16.9726L195.687 17.4458C195.444 19.1311 194.903 21.5149 196.093 22.8667C197.535 24.5025 200.301 23.8085 201.716 22.5648L206.673 18.2253C208.133 16.9456 210.963 16.0263 212.617 17.3647C216.069 20.1585 219.899 21.5284 224.473 20.7128Z" fill="black"/>
<path d="M181.952 51.1387C177.748 52.4094 172.322 52.103 171.439 48.2412C170.723 45.1004 172.895 43.0951 175.833 41.1079L174.657 40.2967C174.292 40.0444 173.922 39.1702 173.99 38.7646C174.057 38.3591 174.742 37.6201 175.152 37.557L179.969 36.8315L182.502 33.249C183.755 31.4826 186.63 30.9599 188.135 32.6993C189.027 33.7312 188.847 35.5066 188.82 36.9802C190.771 36.2997 192.758 35.759 194.678 36.2321C196.597 36.7053 197.553 38.2915 197.647 39.9272C197.751 41.7658 196.962 43.3069 194.993 44.1541C196.381 45.3437 196.701 47.0561 195.737 48.7008C194.06 51.5668 190.924 53.9235 187.567 54.23C185.048 54.4598 182.84 53.2972 181.966 51.1432L181.952 51.1387ZM188.657 46.4928C187.671 46.2945 186.882 45.4744 186.805 44.4875C186.747 43.7575 187.378 42.631 188.189 42.3561L194.299 40.2967C192.587 38.1878 189.383 41.4684 186.913 39.9227C186.292 39.5352 185.67 38.2329 185.661 37.4038L185.625 34.4567L184.142 35.7905L181.547 39.2198C183.669 40.0174 184.309 41.4503 183.71 43.7575C185.399 44.1721 186.143 45.4203 186.35 47.038L186.666 49.53C188.729 49.4173 190.131 48.5296 191.487 47.0561L188.657 46.4883V46.4928Z" fill="black"/>
<path d="M176.184 101.55L174.85 94.9482C189.734 93.4882 200.585 82.1506 200.716 67.3387C200.734 65.392 202.834 64.2339 204.321 64.4187C206.349 64.671 207.417 66.2031 207.372 68.2444C207.079 80.659 200.184 91.7488 189.243 97.5664C185.21 99.6888 181.037 100.928 176.189 101.559L176.184 101.55Z" fill="black"/>
<path d="M82.3333 131.863C80.31 131.503 79.3277 129.565 79.7062 127.834C80.1072 126.014 81.8331 124.964 83.8113 125.315C93.2203 126.987 102.291 124.536 108.843 117.583C110.213 116.132 112.264 116.096 113.566 117.236C115.166 118.637 115.048 120.868 113.62 122.332C105.261 130.876 94.3198 133.985 82.3333 131.863Z" fill="black"/>
<path d="M82.3061 111.675C82.8829 113.649 81.6392 115.407 80.044 115.839C78.1694 116.348 76.385 115.348 75.8307 113.424L72.1491 100.617C71.6579 98.9004 72.78 97.2195 74.3211 96.6788C75.7135 96.1876 77.9441 96.7554 78.4713 98.5534L82.3106 111.68L82.3061 111.675Z" fill="black"/>
<path d="M109.691 102.699C110.29 104.7 108.979 106.453 107.212 106.872C105.446 107.291 103.769 106.286 103.211 104.393L99.6462 92.3617C99.1145 90.5593 100.097 88.8334 101.71 88.2476C103.188 87.7113 105.387 88.2971 105.919 90.0816L109.686 102.699H109.691Z" fill="black"/>
<path d="M225.041 43.5099C225.239 42.194 226.667 41.7479 227.569 42.0498C230.178 42.9195 228.019 46.3262 229.565 48.1648C230.394 49.1561 232.381 48.6334 233.053 47.7322C234.148 46.2677 233.224 44.2308 231.602 43.7126C230.399 43.3251 229.826 42.2932 230.11 41.2072C230.394 40.1212 231.516 39.4678 232.737 39.8373C236.892 41.09 238.821 45.9838 236.626 49.7194C235.54 51.5715 233.62 52.3871 231.557 52.6394C228.794 52.9774 226.32 51.6346 225.419 48.9218C224.883 47.3086 224.761 45.3484 225.041 43.5053V43.5099Z" fill="black"/>
<path d="M238.154 13.0974C235.991 12.9081 234.332 11.5653 234.179 9.44735C234.125 8.71284 234.513 7.65388 235.058 7.29338C235.603 6.93288 236.689 7.03653 237.509 7.26184C237.433 6.75714 237.451 5.6351 237.798 5.17096C238.884 3.73347 242.178 4.47249 243.3 6.19837C244.142 7.49165 244.061 9.02827 243.399 10.272C242.38 12.1961 240.497 13.2911 238.149 13.0884L238.154 13.0974Z" fill="black"/>
<path d="M239.785 75.702C238.753 76.5402 237.671 76.8871 236.716 76.0445C235.837 75.2694 235.774 73.7012 236.815 72.8766L241.272 69.3527C242.069 68.7219 243.466 69.177 243.976 69.9791C244.534 70.8578 244.359 71.9844 243.421 72.7459L239.785 75.702Z" fill="black"/>
<path d="M167.798 23.1866C167.717 24.0157 166.608 24.7773 165.869 24.7908C165.13 24.8043 163.801 24.1014 163.873 23.2993L164.238 19.2482C164.31 18.4686 165.739 17.9278 166.455 18.045C167.293 18.1802 168.199 19.1896 168.105 20.1314L167.798 23.1866Z" fill="black"/>
</svg>
